<svg xmlns="http://www.w3.org/2000/svg" xmlns:xlink="http://www.w3.org/1999/xlink" xml:space="preserve" width="100px" height="100px" style="shape-rendering:geometricPrecision; text-rendering:geometricPrecision; image-rendering:optimizeQuality; fill-rule:evenodd; clip-rule:evenodd" viewBox="0 0 100 100">
 <defs>
  <style type="text/css">
   
    .fil2 {fill:#DA251D}
    .fil1 {fill:black}
    .fil0 {fill:red}
   
  </style>
 </defs>
 <g id="Layer_x0020_1">
  <metadata id="CorelCorpID_0Corel-Layer"/>
  <path class="fil0" d="M-285.557 90.3078c10.2166,-0.0791345 21.6722,2.73073 29.6341,-2.51104 8.51936,-5.6091 18.8045,-5.74847 27.3711,-0.2126 7.82605,5.05752 19.6903,2.12836 29.6695,2.05041 -0.124017,-15.9663 -9.91307,-9.75953 -16.0903,-15.8423 -9.19495,-9.05204 -9.33669,-27.3002 -27.5837,-27.1585 -18.247,0.141733 -18.1053,18.3887 -27.1585,27.5837 -5.28075,5.36343 -15.9663,0.124017 -15.8423,16.0903z"/>
  <path id="full_moon" class="fil0" d="M-373.685 38.4227c-5.02091,0 -9.10401,-4.08547 -9.10401,-9.10519 0,-5.02091 4.0831,-9.10519 9.10401,-9.10519 5.01972,0 9.10519,4.08428 9.10519,9.10519 0,5.01972 -4.08547,9.10519 -9.10519,9.10519zm65.7135 0c-5.02091,0 -9.10519,-4.08547 -9.10519,-9.10519 0,-5.02091 4.08428,-9.10519 9.10519,-9.10519 5.01972,0 9.10519,4.08428 9.10519,9.10519 0,5.01972 -4.08547,9.10519 -9.10519,9.10519zm-9.6237 23.2325c5.01972,0 9.10519,-4.08428 9.10519,-9.10519 0,-5.01972 -4.08547,-9.10401 -9.10519,-9.10401 -5.01972,0 -9.10519,4.08428 -9.10519,9.10401 0,5.02091 4.08547,9.10519 9.10519,9.10519zm7.22132 -9.10519c0,3.98389 -3.23861,7.22132 -7.22132,7.22132 -0.25512,0 -0.507878,-0.0141733 -0.757093,-0.0401578 2.55238,-1.38072 4.2898,-4.07484 4.2898,-7.18116 0,-3.10514 -1.73742,-5.80044 -4.28862,-7.17998 0.248033,-0.0271656 0.500791,-0.0413389 0.755911,-0.0413389 3.98271,0 7.22132,3.23979 7.22132,7.22132zm-7.22132 -55.5701c-5.02091,0 -9.10519,4.0831 -9.10519,9.10519 0,5.01972 4.08428,9.10401 9.10519,9.10401 5.01972,0 9.10519,-4.08428 9.10519,-9.10401 0,-5.02209 -4.08547,-9.10519 -9.10519,-9.10519zm-7.22132 9.10519c0,-3.98271 3.23861,-7.22132 7.22132,-7.22132 0.25512,0 0.507878,0.0129922 0.758274,0.0401578 -2.5512,1.37954 -4.29098,4.07484 -4.29098,7.18116 0,3.10514 1.73623,5.80044 4.28862,7.17998 -0.248033,0.0259845 -0.49961,0.0401578 -0.755911,0.0401578 -3.98271,0 -7.22132,-3.23743 -7.22132,-7.22014zm-39.2448 9.10401c5.01972,0 9.10519,-4.08547 9.10519,-9.10519 0,-5.01972 -4.08547,-9.10401 -9.10519,-9.10401 -5.01972,0 -9.10519,4.08428 -9.10519,9.10401 0,5.01972 4.08547,9.10519 9.10519,9.10519zm-0.514965 -16.3005c2.56301,1.37718 4.30633,4.08192 4.30633,7.19533 0,3.11341 -1.74568,5.81934 -4.30515,7.19533 -3.74294,-0.26575 -6.70753,-3.38743 -6.70753,-7.19533 0,-3.8079 2.96459,-6.9284 6.70635,-7.19533zm0.514965 44.5574c-5.02091,0 -9.10519,4.0831 -9.10519,9.10401 0,5.02091 4.08428,9.10519 9.10519,9.10519 5.01972,0 9.10519,-4.08428 9.10519,-9.10519 0,-5.02091 -4.08547,-9.10401 -9.10519,-9.10401zm0.514965 16.3005c-2.56301,-1.37718 -4.30633,-4.08192 -4.30633,-7.19651 0,-3.11223 1.74332,-5.81697 4.30633,-7.19415 3.74294,0.26575 6.70635,3.38743 6.70635,7.19415 0,3.8079 -2.96341,6.92722 -6.70635,7.19651zm22.7187 -6.67682c5.01972,0 9.10401,4.08428 9.10401,9.10401 0,5.01972 -4.08428,9.10519 -9.10401,9.10519 -5.02091,0 -9.10519,-4.08547 -9.10519,-9.10519 0,-5.01972 4.08428,-9.10401 9.10519,-9.10401zm0 16.3253c3.98271,0 7.22132,-3.23743 7.22132,-7.22132 0,-3.98153 -3.23861,-7.22132 -7.22132,-7.22132l0 14.4426zm0 -63.8296c-5.02209,0 -9.10519,-4.08428 -9.10519,-9.10401 0,-5.02091 4.0831,-9.10519 9.10519,-9.10519 5.01972,0 9.10401,4.08428 9.10401,9.10519 0,5.01972 -4.08428,9.10401 -9.10401,9.10401zm0 -16.3253c-3.98271,0 -7.22132,3.23861 -7.22132,7.22132 0,3.98271 3.23861,7.22014 7.22132,7.22014l0 -14.4415zm-32.8573 32.8562c-3.98153,0 -7.22132,3.23861 -7.22132,7.22132 0,3.98271 3.23979,7.22132 7.22132,7.22132 3.98271,0 7.22132,-3.23861 7.22132,-7.22132 0,-3.98271 -3.23861,-7.22132 -7.22132,-7.22132z"/>
  <path class="fil1" d="M61.4804 71.7183c6.66856,-8.14967 18.0143,-10.5402 28.0301,-8.96818l2.09293 0.328349 -1.27796 1.68899c-6.37918,8.42723 -18.1454,11.0434 -28.1187,8.99535l-2.05395 -0.421657 1.32757 -1.62285zm2.59726 -59.978c7.02289,5.64571 11.2182,15.0084 9.47606,24.012l-0.381499 1.97482 -1.61576 -1.19529c-7.20124,-5.32681 -12.0639,-15.2151 -9.49141,-24.1537l0.527957 -1.8319 1.48466 1.1941zm28.942 28.9798c-1.37836,9.79496 -8.41542,19.7364 -18.449,21.9498l-1.86025 0.411027 0.34016 -1.87561c1.78584,-9.82685 8.63629,-18.808 18.332,-21.8706l1.91694 -0.60591 -0.279923 1.99135zm-10.4576 -21.5222c3.71696,8.57841 2.589,18.9557 -3.1453,26.3825l-1.34647 1.74332 -0.831503 -2.03978c-3.50436,-8.60912 -2.63152,-18.9415 3.16065,-26.3612l1.3134 -1.68308 0.849219 1.95828zm-62.9603 -0.275199c5.79217,7.41974 6.66501,17.7521 3.16065,26.3612l-0.831503 2.03978 -1.34647 -1.74332c-5.7343,-7.42683 -6.86226,-17.8041 -3.1453,-26.3825l0.849219 -1.95828 1.3134 1.68308zm18.1927 54.8402c-9.97331,2.04805 -21.7395,-0.568115 -28.1187,-8.99535l-1.27914 -1.68899 2.09293 -0.328349c10.017,-1.57206 21.3616,0.81851 28.0313,8.96818l1.32757 1.62285 -2.05395 0.421657zm0.140552 -61.3847c2.57364,8.93865 -2.28899,18.8269 -9.49023,24.1537l-1.61694 1.19529 -0.381499 -1.97482c-1.74096,-9.00361 2.45317,-18.3663 9.47606,-24.012l1.48584 -1.1941 0.526776 1.8319zm-29.3164 26.9565c9.69456,3.06262 16.5462,12.0438 18.332,21.8706l0.34016 1.87561 -1.86025 -0.411027c-10.0347,-2.2134 -17.0706,-12.1548 -18.449,-21.9498l-0.281105 -1.99135 1.91813 0.60591zm48.4197 41.4783c1.63112,1.73505 3.32719,3.40633 5.28547,4.72563l1.34765 0.907094 -1.20828 1.08662c-0.49961,0.447641 -0.993315,0.901188 -1.48348,1.3571l-0.60591 0.564571 -0.760636 -0.328349c-4.66539,-2.01616 -5.9906,-7.02643 -9.61307,-9.38866 -3.62247,2.36222 -4.9465,7.3725 -9.61189,9.38866l-0.761817 0.328349 -0.60591 -0.565752c-0.490161,-0.45709 -0.983866,-0.908275 -1.4823,-1.35592l-1.2071 -1.08662 1.34765 -0.907094c1.9571,-1.3193 3.65318,-2.99057 5.28547,-4.72681 -2.23584,1.10788 -4.45515,2.38348 -7.00163,2.86065 -4.5461,0.762998 -9.41228,1.03583 -13.7351,-0.8504l-2.08939 -0.910637 1.87679 -1.2945c4.27326,-2.94805 8.8607,-5.69532 14.1769,-6.11816 4.1835,-0.229136 8.42605,-0.126379 12.5257,0.81851l0.05315 0.0118111 0.0519689 0.0177167c0.774809,0.250396 1.58151,0.250396 2.35632,0l0.0519689 -0.0177167 0.0543311 -0.0118111c4.09846,-0.944889 8.34101,-1.04765 12.5399,-0.81851 5.30319,0.422838 9.88945,3.17128 14.1615,6.11816l1.87561 1.2945 -2.08821 0.910637c-4.32287,1.88624 -9.18905,1.6134 -13.747,0.848038 -2.53939,-0.475988 -4.75516,-1.75041 -6.98864,-2.85711z"/>
  <path class="fil1" d="M-71.045 -2.43781l1.65119 0 0 8.80637 2.20159 0 0 -8.80637 3.30239 0 0 8.80637 2.20041 0 0 -8.80637 1.67482 0 0 8.80637 2.17797 0 0 -8.85125c4.93587,-0.402759 8.80637,-3.47601 8.80637,-7.17762l0 -54.9004c0,-3.97326 -4.45752,-7.22368 -9.90716,-7.22368l-1.65119 0 0 -5.50398 -2.20041 0 0 -5.50398 -5.50398 0 0 5.50398 -2.20159 0 0 5.50398 -1.65119 0c-5.44847,0 -9.90716,3.25042 -9.90716,7.22368l0 54.9004c0,3.7016 3.8705,6.77486 8.80637,7.17762l0 8.85125 2.20159 0 0 -8.80637zm-5.50398 -16.5108l22.0147 0 0 1.65119 -1.62285 0 -2.54648 7.15517 7.47171 0 0 -46.7827 -7.47171 0 2.54648 7.15517 1.62285 0 0 1.65119 -22.0147 0 0 -1.65119 1.44686 0 2.68112 -7.15517 -7.43037 0 0 46.7827 7.43037 0 -2.68112 -7.15517 -1.44686 0 0 -1.65119zm15.4525 8.80637l1.92639 -7.15517 -5.27012 0 0 7.15517 3.34373 0zm-5.54532 0l0 -7.15517 -5.22996 0 1.8945 7.15517 3.33546 0zm5.54532 -46.7827l1.92639 7.15517c-13.7304,0 1.02993,0 -12.7017,0l1.8945 -7.15517 8.88078 0zm-15.4525 35.7747l22.0147 0 0 -24.7667 -22.0147 0 0 24.7667zm2.75199 -6.05438l1.65119 0 0 -3.85279 -1.65119 0 0 3.85279zm14.8596 -8.80637l1.65119 0 0 -3.85161 -1.65119 0 0 3.85161zm-4.9524 0l1.65119 0 0 -3.85161 -1.65119 0 0 3.85161zm-4.95358 0l1.65119 0 0 -3.85161 -1.65119 0 0 3.85161zm-4.95358 0l1.65119 0 0 -3.85161 -1.65119 0 0 3.85161zm14.8596 8.80637l1.65119 0 0 -3.85279 -1.65119 0 0 3.85279zm-4.9524 0l1.65119 0 0 -3.85279 -1.65119 0 0 3.85279zm-4.95358 0l1.65119 0 0 -3.85279 -1.65119 0 0 3.85279z"/>
  <path class="fil2" d="M-533.058 164.775l8.02093 4.00043c0.94607,0.472445 1.71852,-0.112206 1.71852,-1.29922l0 -10.069c0,-1.18702 -0.772447,-2.54293 -1.71852,-3.0142l-8.02093 -4.00161c-0.94607,-0.471264 -1.71852,0.113387 -1.71852,1.3004l0 10.069c0,1.18702 0.772447,2.54293 1.71852,3.0142zm-12.9036 -22.7104l8.02093 4.00043c0.944889,0.471264 1.71852,-0.113387 1.71852,-1.3004l0 -10.0678c0,-1.18702 -0.773628,-2.54411 -1.71852,-3.01538l-8.02093 -4.00043c-0.94607,-0.472445 -1.71852,0.113387 -1.71852,1.3004l0 10.0678c0,1.18702 0.772447,2.54293 1.71852,3.01538zm45.3322 -17.7934l-8.22526 -4.11263c-0.969693,-0.484256 -2.55474,-0.484256 -3.52444,0 -2.74136,1.37127 -5.48272,2.74254 -8.22408,4.11263 -0.666147,0.333073 -1.13032,1.17875 -1.13032,1.91222l0 10.0678c0,1.18702 0.773628,2.54411 1.7197,3.01538 2.67286,1.33348 6.51737,3.25042 8.02093,3.99924 1.50356,0.750006 2.30081,0.167718 2.63506,0l8.02093 -3.99924c0.94607,-0.471264 1.71852,-1.82836 1.71852,-3.01538 0,-3.35554 0,-6.71226 0,-10.0678 0,-0.714573 -0.353152,-1.58387 -1.01103,-1.91222zm-8.22526 -20.2348l8.22526 -4.11145c0.968512,-0.484256 0.968512,-1.27796 0,-1.76222l-8.22526 -4.11263c-0.969693,-0.484256 -2.55474,-0.484256 -3.52444,0l-8.22408 4.11263c-0.969693,0.484256 -0.969693,1.27796 0,1.76222l8.22408 4.11145c0.969693,0.485437 2.55474,0.485437 3.52444,0zm13.0548 6.528l8.22408 -4.11145c0.969693,-0.485437 0.969693,-1.27796 0,-1.7634l-8.22408 -4.11145c-0.969693,-0.485437 -2.55474,-0.485437 -3.52444,0l-8.22408 4.11145c-0.969693,0.485437 -0.969693,1.27796 0,1.7634l8.22408 4.11145c0.969693,0.484256 2.55474,0.484256 3.52444,0zm-37.8582 7.17998l8.22408 -4.11145c0.969693,-0.485437 2.55593,-0.485437 3.52562,0l8.22408 4.11145c0.969693,0.484256 0.969693,1.27796 0,1.76222 -2.83821,1.41852 -5.67642,2.83939 -8.51463,4.25791 -0.676777,0.338979 -0.845676,1.04292 -0.851582,1.74805l0 9.7985c0,1.18584 -0.772447,1.77049 -1.71852,1.29922l-8.02093 -3.99924c-0.94607,-0.472445 -1.71852,-1.82836 -1.71852,-3.01538 0,-3.35672 0,-6.71226 0,-10.069 0,-0.716935 0.162993,-1.43859 0.8504,-1.7823zm46.0823 0l-8.22408 -4.11145c-0.969693,-0.485437 -2.55593,-0.485437 -3.52444,0l-8.22408 4.11145c-0.969693,0.484256 -0.969693,1.27796 0,1.76222 2.83703,1.41852 5.67642,2.83939 8.51345,4.25791 0.677958,0.338979 0.845676,1.04292 0.851582,1.74805l0 9.7985c0,1.18584 0.773628,1.77049 1.71852,1.29922l8.02093 -3.99924c0.94607,-0.472445 1.7197,-1.82836 1.7197,-3.01538 0,-3.35672 0,-6.71226 0,-10.069 0,-0.716935 -0.164175,-1.43859 -0.851582,-1.7823zm-59.1359 -6.528l8.2229 -4.11145c0.969693,-0.484256 2.55593,-0.484256 3.52562,0l8.22408 4.11145c0.969693,0.485437 0.969693,1.27796 0,1.76222 -2.83821,1.4197 -5.67642,2.83939 -8.51463,4.25791 -0.676777,0.338979 -0.845676,1.0441 -0.8504,1.74923l0 9.79732c0,1.18702 -0.773628,1.77167 -1.71852,1.3004l-8.02211 -4.00043c-0.94607,-0.472445 -1.71852,-1.82836 -1.71852,-3.01538 0,-3.35554 0,-6.71226 0,-10.0678 0,-0.716935 0.162993,-1.43859 0.851582,-1.78348zm72.1907 0l-8.22408 -4.11145c-0.969693,-0.484256 -2.55593,-0.484256 -3.52444,0l-8.22526 4.11145c-0.969693,0.485437 -0.969693,1.27796 0,1.76222 2.83821,1.4197 5.67642,2.83939 8.51463,4.25791 0.676777,0.338979 0.845676,1.0441 0.851582,1.74923l0 9.79732c0,1.18702 0.772447,1.77167 1.71852,1.3004l8.02093 -4.00043c0.94607,-0.472445 1.71852,-1.82836 1.71852,-3.01538 0,-3.35554 0,-6.71226 0,-10.0678 0,-0.716935 -0.162993,-1.43859 -0.8504,-1.78348zm-47.3874 -0.651974l8.22408 -4.11145c0.969693,-0.485437 0.969693,-1.27796 0,-1.7634l-8.22408 -4.11145c-0.969693,-0.485437 -2.55474,-0.485437 -3.52444,0l-8.22526 4.11145c-0.968512,0.485437 -0.968512,1.27796 0,1.7634l8.22526 4.11145c0.969693,0.484256 2.55474,0.484256 3.52444,0zm13.0536 6.52682l8.22526 -4.11263c0.968512,-0.484256 0.968512,-1.27678 0,-1.76222l-8.22526 -4.11145c-0.969693,-0.484256 -2.55474,-0.484256 -3.52444,0l-8.22408 4.11145c-0.969693,0.485437 -0.969693,1.27796 0,1.76222l8.22408 4.11263c0.969693,0.484256 2.55474,0.484256 3.52444,0zm33.4656 24.9734l-8.02093 4.00043c-0.94607,0.471264 -1.71852,-0.113387 -1.71852,-1.3004l0 -10.0678c0,-1.18702 0.772447,-2.54411 1.71852,-3.01538l8.02093 -4.00043c0.94607,-0.472445 1.71852,0.113387 1.71852,1.3004l0 10.0678c0,1.18702 -0.772447,2.54293 -1.71852,3.01538zm0 15.9816l-8.02093 4.00043c-0.94607,0.471264 -1.71852,-0.113387 -1.71852,-1.3004l0 -10.069c0,-1.18584 0.772447,-2.54293 1.71852,-3.0142l8.02093 -4.00043c0.94607,-0.471264 1.71852,0.113387 1.71852,1.3004l0 10.069c0,1.18584 -0.772447,2.54175 -1.71852,3.0142zm-25.9478 -2.79805c-2.67404,1.33348 -6.51737,3.25042 -8.02093,4.00043 -1.50356,0.750006 -2.30081,0.166537 -2.63506,0l-8.02093 -4.00043c-0.94607,-0.471264 -1.7197,-1.82836 -1.7197,-3.01538 0,-3.36499 -0.00590556,-6.70635 0,-10.0678 0,-1.18702 0.773628,-1.77167 1.7197,-1.3004l8.0351 4.00043c0.933078,0.465358 1.62993,0.496067 2.62089,0l8.02093 -4.00043c0.94607,-0.471264 1.71852,0.113387 1.71852,1.3004 0,3.36499 0,6.70163 0,10.0678 0,1.18702 -0.772447,2.54411 -1.71852,3.01538zm0 15.9816c-2.67404,1.33348 -6.51737,3.25042 -8.02093,4.00043 -1.50356,0.750006 -2.30081,0.166537 -2.63506,0l-8.02093 -4.00043c-0.94607,-0.471264 -1.7197,-1.82836 -1.7197,-3.01538 0,-3.36499 -0.00590556,-6.70635 0,-10.0678 0,-1.18702 0.773628,-1.77167 1.7197,-1.3004l8.0351 4.00043c0.933078,0.465358 1.62993,0.494886 2.62089,0l8.02093 -4.00043c0.94607,-0.471264 1.71852,0.113387 1.71852,1.3004 0,3.36499 0,6.70163 0,10.0678 0,1.18702 -0.772447,2.54411 -1.71852,3.01538zm13.0442 -22.4364l-8.02093 4.00043c-0.94607,0.472445 -1.71852,-0.113387 -1.71852,-1.29922l0 -10.069c0,-1.18702 0.772447,-2.54293 1.71852,-3.01538l8.02093 -4.00043c0.94607,-0.471264 1.71852,0.114568 1.71852,1.3004l0 10.069c0,1.18584 -0.772447,2.54293 -1.71852,3.0142zm0 15.9816l-8.02093 4.00043c-0.94607,0.472445 -1.71852,-0.112206 -1.71852,-1.29922l0 -10.069c0,-1.18702 0.772447,-2.54293 1.71852,-3.0142l8.02093 -4.00161c0.94607,-0.471264 1.71852,0.113387 1.71852,1.3004l0 10.069c0,1.18702 -0.772447,2.54293 -1.71852,3.0142zm-57.669 -6.72879l8.02093 4.00043c0.944889,0.471264 1.71852,-0.113387 1.71852,-1.3004l0 -10.069c0,-1.18584 -0.773628,-2.54293 -1.71852,-3.0142l-8.02093 -4.00043c-0.94607,-0.471264 -1.71852,0.113387 -1.71852,1.3004l0 10.069c0,1.18584 0.772447,2.54175 1.71852,3.0142zm12.9036 -9.25283l8.02093 4.00043c0.94607,0.472445 1.71852,-0.113387 1.71852,-1.29922l0 -10.069c0,-1.18702 -0.772447,-2.54293 -1.71852,-3.01538l-8.02093 -4.00043c-0.94607,-0.471264 -1.71852,0.114568 -1.71852,1.3004l0 10.069c0,1.18584 0.772447,2.54293 1.71852,3.0142z"/>
  <path class="fil2" d="M-162.066 139.044c18.6486,0.0897645 17.4486,16.9856 23.9813,28.9727 7.23077,13.2686 31.6006,2.52404 31.6006,24.7561l0 20.3801 -63.6926 0.289372 -12.2694 -0.289372 0 -43.8629c0,-17.2773 1.73151,-30.3357 20.3801,-30.2459zm-16.6749 61.1402l0 9.26346 68.5505 0 0 -9.26346 -3.70515 0 0 7.41029 -1.85316 0 0 -7.41029 -1.85198 0 0 7.41029 -1.85316 0 0 -7.41029 -5.55831 0 0 7.41029 -1.85316 0 0 -7.41029 -1.85198 0 0 7.41029 -1.85316 0 0 -7.41029 -1.85198 0 0 7.41029 -1.85316 0 0 -7.41029 -7.41148 0 0 7.41029 -1.85198 0 0 -7.41029 -1.85316 0 0 7.41029 -1.85198 0 0 -7.41029 -5.55831 0 0 7.41029 -1.85316 0 0 -7.41029 -1.85316 0 0 7.41029 -1.85198 0 0 -7.41029 -1.85316 0 0 7.41029 -1.85316 0 0 -7.41029 -7.41029 0 0 7.41029 -1.85316 0 0 -7.41029 -1.85198 0 0 7.41029 -1.85316 0 0 -7.41029 -3.70515 0 0 0z"/>
  <path class="fil1" d="M-128.896 -151.703l0 51.8768 4.4457 0 0 -51.8768c0,-2.96459 -1.4823,-4.44689 -4.4457,-4.44689l-66.6986 0c-2.96341,0 -4.44689,1.48348 -4.44689,4.44689l0 51.8768 4.44689 0 0 -51.8768 14.4037 0 -5.42721 31.2321c-2.47561,-0.230317 -4.82838,1.35355 -5.48744,3.83625 -0.734651,2.76853 0.915362,5.6091 3.68389,6.34375 2.76853,0.734651 5.61028,-0.915362 6.34375,-3.68389 0.65906,-2.4827 -0.600005,-5.02445 -2.8642,-6.05202l11.4414 -31.6762 3.10042 0 2.84057 32.4676c-2.45199,0.413389 -4.32051,2.54648 -4.32051,5.11539 0,2.8642 2.32325,5.18744 5.18862,5.18744 2.8642,0 5.18744,-2.32325 5.18744,-5.18744 0,-2.56892 -1.86852,-4.70201 -4.32051,-5.11539l2.84057 -32.4676 2.95278 0 2.84766 32.5384c-2.45199,0.413389 -4.32051,2.54648 -4.32051,5.11539 0,2.8642 2.32325,5.18744 5.18744,5.18744 2.8642,0 5.18744,-2.32325 5.18744,-5.18744 0,-2.56892 -1.86852,-4.70201 -4.32051,-5.11539l2.84648 -32.5384 2.94097 0 2.85357 32.6093c-2.45199,0.413389 -4.32051,2.54648 -4.32051,5.11539 0,2.8642 2.32325,5.18744 5.18744,5.18744 2.8642,0 5.18744,-2.32325 5.18744,-5.18744 0,-2.56892 -1.86852,-4.70201 -4.32051,-5.11539l2.85357 -32.6093c18.6061,0 -26.21,0 13.3253,0zm-40.0161 0l4.4398 0 -2.21931 25.375 -2.22049 -25.375zm10.369 0l4.45279 0 -2.2264 25.4459 -2.2264 -25.4459zm10.369 0l4.4646 0 -2.2323 25.5167 -2.2323 -25.5167zm-31.5121 0l4.60988 0 -8.88432 24.599 4.27444 -24.599z"/>
  <polygon class="fil1" points="-165.124,-19.1907 -159.103,-25.212 -159.103,-38.8031 -155.491,-50.8457 -155.491,-67.7049 -154.286,-67.7049 -149.47,-92.9948 -144.652,-67.7049 -143.447,-67.7049 -143.447,-50.8457 -137.426,-50.8457 -137.426,-67.7049 -136.222,-67.7049 -131.405,-92.9948 -126.588,-67.7049 -125.383,-67.7049 -125.487,-44.5161 -122.975,-48.4362 -120.567,-48.4362 -118.158,-44.8244 -106.116,-44.8244 -98.8898,-37.5983 -98.8898,-30.0286 -96.4815,-27.6203 -96.4815,-14.3741 -165.124,-14.3741 "/>
  <path class="fil2" d="M-406.648 200.737c-1.0004,-4.11617 0.780715,-8.69062 4.18468,-11.1769 5.46382,4.21421 10.9713,8.37172 16.4328,12.5824 -0.383861,0.879928 -0.81851,1.73978 -1.37954,2.51695 7.56738,5.44611 15.0686,10.9867 22.61,16.4671 7.41738,-5.40477 14.8371,-10.8013 22.2616,-16.1978 0.0496067,-0.660241 0.102757,-1.3193 0.155907,-1.97836 1.7882,-0.05315 3.58113,-0.0224411 5.37051,-0.0224411l0.101576 20.0033c2.54411,0.738195 4.65712,2.49333 5.87131,4.79413l8.14849 0 0 7.96542 -7.67132 0c-1.39253,3.64373 -4.92051,6.23273 -9.05204,6.23273 -4.12917,0 -7.6536,-2.58427 -9.0485,-6.22446l-3.32129 -0.00826778 -27.9994 0c-1.48111,3.45593 -4.91106,5.87603 -8.90794,5.87603 -3.9957,0 -7.42683,-2.4201 -8.90676,-5.87603l-8.7355 0 0 -7.96542 8.89023 0c1.55552,-3.2705 4.89098,-5.53233 8.75204,-5.53233 3.86224,0 7.19769,2.26183 8.75322,5.53233l6.68745 0c1.81537,-1.24253 3.35436,-2.29962 4.16696,-2.87719 -6.45832,-4.80949 -13.0064,-9.50913 -19.4954,-14.2761 -0.962606,-0.742919 -2.06104,-1.33466 -2.83467,-2.28899 -2.0386,0.94607 -4.39964,1.39017 -6.61304,0.832684 -4.15397,-0.768904 -7.59927,-4.25555 -8.42133,-8.37881zm67.034 34.6774c1.75513,0 3.17837,-1.42324 3.17837,-3.17837 0,-1.75513 -1.42324,-3.17837 -3.17837,-3.17837 -1.75513,0 -3.17837,1.42324 -3.17837,3.17837 0,1.75513 1.42324,3.17837 3.17837,3.17837zm-49.2772 -0.355515c1.75513,0 3.17837,-1.42324 3.17837,-3.17837 0,-1.75513 -1.42324,-3.17837 -3.17837,-3.17837 -1.75395,0 -3.17719,1.42324 -3.17719,3.17837 0,1.75513 1.42324,3.17837 3.17719,3.17837zm46.6126 -12.1383c-2.29726,0.655517 -4.24728,2.13899 -5.50398,4.10791 -3.36971,0.00118111 -6.73942,0.00354333 -10.1091,-0.00944889 -0.848038,-0.794888 -1.7008,-1.57915 -2.54648,-2.37167 6.02603,-4.30161 12.0639,-8.59495 18.097,-12.8895 0.0141733,3.7205 0.0354333,7.441 0.0625989,11.1627z"/>
 </g>
</svg>